HIERARCHY
ROOT Hips
{
	OFFSET 0.0000 0.0000 0.0000
	CHANNELS 6 Xposition Yposition Zposition Zrotation Xrotation Yrotation
	JOINT Ab
	{
		OFFSET -0.0000 8.0846 -0.0000
		CHANNELS 3 Zrotation Xrotation Yrotation
		JOINT Chest
		{
			OFFSET -0.0000 25.0068 -0.0000
			CHANNELS 3 Zrotation Xrotation Yrotation
			JOINT Neck
			{
				OFFSET -0.0000 25.0068 0.0000
				CHANNELS 3 Zrotation Xrotation Yrotation
				JOINT Head
				{
					OFFSET -0.0000 10.7556 0.0000
					CHANNELS 3 Zrotation Xrotation Yrotation
					End Site
					{
						OFFSET -0.0000 16.6222 0.0000
					}
				}
			}
			JOINT LeftCollar
			{
				OFFSET -0.0000 25.0068 0.0000
				CHANNELS 3 Zrotation Xrotation Yrotation
				JOINT LeftShoulder
				{
					OFFSET 19.5556 -0.0000 0.0000
					CHANNELS 3 Zrotation Xrotation Yrotation
					JOINT LeftElbow
					{
						OFFSET 27.1828 0.0000 0.0000
						CHANNELS 3 Zrotation Xrotation Yrotation
						JOINT LeftWrist
						{
							OFFSET 23.3157 0.0000 0.0000
							CHANNELS 3 Zrotation Xrotation Yrotation
							End Site
							{
								OFFSET 0.0000 -14.6667 0.0000
							}
						}
					}
				}
			}
			JOINT RightCollar
			{
				OFFSET -0.0000 25.0068 0.0000
				CHANNELS 3 Zrotation Xrotation Yrotation
				JOINT RightShoulder
				{
					OFFSET -19.5556 0.0000 0.0000
					CHANNELS 3 Zrotation Xrotation Yrotation
					JOINT RightElbow
					{
						OFFSET -27.1828 0.0000 0.0000
						CHANNELS 3 Zrotation Xrotation Yrotation
						JOINT RightWrist
						{
							OFFSET -23.3157 0.0000 0.0000
							CHANNELS 3 Zrotation Xrotation Yrotation
							End Site
							{
								OFFSET -0.0000 -14.6667 0.0000
							}
						}
					}
				}
			}
		}
	}
	JOINT LeftHip
	{
		OFFSET 11.7333 0.0000 0.0000
		CHANNELS 3 Zrotation Xrotation Yrotation
		JOINT LeftKnee
		{
			OFFSET -0.0000 -40.8688 0.0000
			CHANNELS 3 Zrotation Xrotation Yrotation
			JOINT LeftAnkle
			{
				OFFSET -0.0000 -44.4337 0.0000
				CHANNELS 3 Zrotation Xrotation Yrotation
				End Site
				{
					OFFSET -0.0000 -4.8889 16.6222
				}
			}
		}
	}
	JOINT RightHip
	{
		OFFSET -11.7333 0.0000 0.0000
		CHANNELS 3 Zrotation Xrotation Yrotation
		JOINT RightKnee
		{
			OFFSET -0.0000 -40.8688 0.0000
			CHANNELS 3 Zrotation Xrotation Yrotation
			JOINT RightAnkle
			{
				OFFSET -0.0000 -44.4337 0.0000
				CHANNELS 3 Zrotation Xrotation Yrotation
				End Site
				{
					OFFSET -0.0000 -4.8889 16.6222
				}
			}
		}
	}
}
MOTION
Frames: 7
Frame Time: 0.010000
-4.6479 88.6544 188.5964 2.3550 359.6434 176.2987 1.3176 359.0683 358.3276 358.8911 11.8435 358.4333 0.9097 350.0811 1.2808 1.8941 15.7221 0.9311 339.0053 358.4992 8.1282 301.1466 31.1366 355.1519 15.6771 354.6707 322.7334 84.2528 0.7802 342.0473 22.2445 359.0342 355.0413 60.8986 45.5374 6.9290 336.6229 354.0122 28.2594 275.0030 353.5221 16.2199 2.1169 358.3843 357.5470 359.1999 10.2809 356.9293 355.9293 351.2800 21.9407 359.3485 351.6580 1.0819 358.7772 19.6060 8.7046 359.7784 344.0326 337.9058 
-4.6563 88.6567 188.5758 2.3490 359.6643 176.3016 1.2968 359.1068 358.3173 358.8954 11.8214 358.4223 0.8766 350.0631 1.2515 1.9095 15.7808 0.9033 338.9969 358.4944 8.1608 301.1366 31.1844 355.1479 15.7369 354.6680 322.7729 84.1826 0.7633 342.1045 22.2564 359.0244 355.0443 60.8928 45.5501 6.9148 336.6119 354.0356 28.2755 274.9971 353.5605 16.2732 2.1060 358.4170 357.3798 359.1682 10.2833 357.0263 356.0295 351.2255 21.9959 359.3299 351.7028 1.0751 358.7840 19.5850 8.6884 359.7121 344.0512 337.9272 
-4.6668 88.6575 188.5694 2.3440 359.6347 176.3074 1.2690 359.0954 358.3082 358.9204 11.8207 358.4109 0.8093 350.0050 1.2076 1.9478 15.8612 0.8563 338.9944 358.4904 8.1376 301.0872 31.0898 355.1990 15.6763 354.6759 322.7411 84.2490 0.7788 342.0500 22.2501 359.0244 355.0475 60.8633 45.5536 6.9471 336.6253 354.0329 28.2601 274.9963 353.5543 16.2423 2.0990 358.3583 357.3525 359.1539 10.3485 357.0282 356.0384 351.1859 22.0049 359.3136 351.6839 1.1137 358.8024 19.5745 8.6338 359.7450 344.0172 337.9399 
-4.6798 88.6575 188.5539 2.3358 359.6238 176.3047 1.2345 359.0966 358.3085 358.9411 11.8216 358.4094 0.7444 349.9610 1.1621 2.0006 15.9232 0.8088 338.9882 358.4902 8.1556 301.0672 31.1371 355.2128 15.7218 354.6750 322.7561 84.1928 0.7742 342.1023 22.2487 359.0272 355.0539 60.8422 45.5493 6.9583 336.6332 354.0437 28.2625 275.0050 353.5400 16.2189 2.0880 358.3197 357.3165 359.1306 10.4212 357.0394 356.0416 351.1369 22.0308 359.2904 351.6897 1.1309 358.8147 19.5640 8.6418 359.7543 343.9978 337.9339 
-4.6939 88.6577 188.5409 2.3286 359.6094 176.3081 1.1850 359.0969 358.3138 358.9821 11.8269 358.4106 0.6562 349.8968 1.0906 2.0827 16.0146 0.7279 338.9789 358.4984 8.1411 301.0337 31.0627 355.2313 15.6750 354.6931 322.7368 84.1756 0.8047 341.9963 22.2377 359.0209 355.0440 60.8229 45.5642 6.9845 336.6109 354.0318 28.2577 275.0486 353.5674 16.2177 2.0777 358.2571 357.2779 359.1034 10.5239 357.0629 356.0669 351.0741 22.0568 359.2674 351.6915 1.1399 358.8267 19.5540 8.6263 359.8012 343.9709 337.9593 
-4.7119 88.6577 188.5266 2.3205 359.5943 176.3071 1.1489 359.0966 358.3199 358.9996 11.8365 358.4156 0.5939 349.8261 1.0337 2.1573 16.1039 0.6644 338.9813 358.4815 8.1331 300.9860 31.0422 355.2570 15.6928 354.6691 322.7009 84.1357 0.8499 341.9831 22.2319 359.0189 355.0317 60.8065 45.5820 7.0153 336.5970 354.0364 28.2355 275.0678 353.5424 16.2191 2.0627 358.1833 357.2290 359.0812 10.6475 357.0783 356.1070 350.9897 22.0812 359.2383 351.6916 1.1381 358.8359 19.5398 8.6173 359.8051 343.9643 337.9949 
-4.7328 88.6581 188.5115 2.3065 359.5783 176.3005 1.1164 359.1122 358.3275 359.0017 11.8085 358.4233 0.5110 349.7814 0.9703 2.2411 16.1968 0.5938 338.9806 358.4829 8.1100 300.9220 30.9311 355.3199 15.6158 354.7068 322.6996 84.1446 0.8409 341.8772 22.2408 359.0238 355.0294 60.7966 45.5849 7.0164 336.6460 354.0633 28.1535 274.9510 353.3249 16.3530 2.0440 358.1406 357.2152 359.0576 10.7190 357.0519 356.1360 350.9428 22.1226 359.1978 351.6925 1.1597 358.8647 19.5248 8.5896 0.1942 343.8918 338.1040 
